# xmcd CD database file
#
# Track frame offsets:
#	150
#	10439
#	22232
#	34993
#	46313
#	56499
#	68526
#	79558
#	92418
#	103394
#	116293
#	124701
#	133668
#	143996
#	158378
#	170270
#	179872
#	195291
#	206604
#	217850
#	230571
#	244879
#	255303
#	268357
#	279213
#	289339
#	300948
#	309099
#	320604
#
# Disc length: 4399 seconds
#
# Revision: 0
# Processed by: cddbd v1.5.2PL0 Copyright (c) Steve Scherf et al.
# Submitted via: CDex 1.51
#
DISCID=94112d1d
DTITLE=Jody Miller - Home Of The Brave
DYEAR=1900
DGENRE=Country
TTITLE0=Queen Of The House
TTITLE1=He Walks Like A Man
TTITLE2=Home Of The Brave
TTITLE3=He Hit Me (And It Felt Like A Kiss)
TTITLE4=Let Me Get Close to You
TTITLE5=All I Really Want to Do
TTITLE6=Johnny One Time
TTITLE7=I Remember Loving Someone
TTITLE8=All My Trials
TTITLE9=Midnight Special
TTITLE10=Evergreen Tree
TTITLE11=Silver Threads And Golden Needles
TTITLE12=I Walk the Line
TTITLE13=Baby I'm Yours
TTITLE14=They Call My Guy A Tiger
TTITLE15=this Is The Life
TTITLE16=Born To Lose
TTITLE17=In My Room
TTITLE18=Only Love Can Break A Heart
TTITLE19=Your Cheating Heart
TTITLE20=Urge For Going
TTITLE21=Railroad Boy
TTITLE22=Everybody's Somebody's Fool
TTITLE23=Sea Of Heartbreak
TTITLE24=If I
TTITLE25=These Are The Years
TTITLE26=The Fever
TTITLE27=The Greatest Acbor
TTITLE28=The Race Is On
EXTD=
EXTT0=
EXTT1=
EXTT2=
EXTT3=
EXTT4=
EXTT5=
EXTT6=
EXTT7=
EXTT8=
EXTT9=
EXTT10=
EXTT11=
EXTT12=
EXTT13=
EXTT14=
EXTT15=
EXTT16=
EXTT17=
EXTT18=
EXTT19=
EXTT20=
EXTT21=
EXTT22=
EXTT23=
EXTT24=
EXTT25=
EXTT26=
EXTT27=
EXTT28=
PLAYORDER=
